<mxfile host="www.draw.io" modified="2020-02-20T10:04:30.255Z" agent="Mozilla/5.0 (Windows NT 10.0; Win64; x64) AppleWebKit/537.36 (KHTML, like Gecko) Chrome/80.0.3987.116 Safari/537.36" etag="Zr3c99zwZGBqF0mXIsRG" version="12.7.2" type="github">
  <diagram id="-xXl_QE5W_EBP_ND2HEr" name="Page-1">
    <mxGraphModel dx="2447" dy="582" grid="0" gridSize="10" guides="1" tooltips="1" connect="1" arrows="1" fold="1" page="1" pageScale="1" pageWidth="1169" pageHeight="1654" math="0" shadow="0">
      <root>
        <object label="" test="" id="0">
          <mxCell />
        </object>
        <mxCell id="1" parent="0" />
        <mxCell id="J3w0lGUIC_cJyagCWIS_-1" value="" style="ellipse;whiteSpace=wrap;html=1;aspect=fixed;" parent="1" vertex="1">
          <mxGeometry x="56" y="170" width="80" height="80" as="geometry" />
        </mxCell>
        <mxCell id="J3w0lGUIC_cJyagCWIS_-2" value="" style="shape=cube;whiteSpace=wrap;html=1;boundedLbl=1;backgroundOutline=1;darkOpacity=0.05;darkOpacity2=0.1;" parent="1" vertex="1">
          <mxGeometry x="354" y="130" width="120" height="80" as="geometry" />
        </mxCell>
        <mxCell id="J3w0lGUIC_cJyagCWIS_-4" style="edgeStyle=orthogonalEdgeStyle;rounded=0;orthogonalLoop=1;jettySize=auto;html=1;" parent="1" source="J3w0lGUIC_cJyagCWIS_-3" edge="1">
          <mxGeometry relative="1" as="geometry">
            <mxPoint x="290" y="320" as="targetPoint" />
          </mxGeometry>
        </mxCell>
        <mxCell id="J3w0lGUIC_cJyagCWIS_-3" value="" style="shape=trapezoid;perimeter=trapezoidPerimeter;whiteSpace=wrap;html=1;" parent="1" vertex="1">
          <mxGeometry x="160" y="390" width="120" height="60" as="geometry" />
        </mxCell>
        <mxCell id="J3w0lGUIC_cJyagCWIS_-5" value="" style="ellipse;shape=cloud;whiteSpace=wrap;html=1;" parent="1" vertex="1">
          <mxGeometry x="595" y="394" width="120" height="80" as="geometry" />
        </mxCell>
        <mxCell id="J3w0lGUIC_cJyagCWIS_-6" value="" style="shape=image;html=1;verticalLabelPosition=bottom;labelBackgroundColor=#ffffff;verticalAlign=top;imageAspect=1;aspect=fixed;image=img/clipart/Gear_128x128.png" parent="1" vertex="1">
          <mxGeometry x="78" y="502" width="52" height="61" as="geometry" />
        </mxCell>
        <mxCell id="J3w0lGUIC_cJyagCWIS_-7" value="" style="verticalLabelPosition=bottom;verticalAlign=top;html=1;shape=mxgraph.basic.diag_snip_rect;dx=6;" parent="1" vertex="1">
          <mxGeometry x="46" y="368" width="100" height="60" as="geometry" />
        </mxCell>
        <mxCell id="J3w0lGUIC_cJyagCWIS_-8" style="edgeStyle=orthogonalEdgeStyle;rounded=0;orthogonalLoop=1;jettySize=auto;html=1;exitX=0.5;exitY=0;exitDx=0;exitDy=0;exitPerimeter=0;entryX=0.5;entryY=1;entryDx=0;entryDy=0;" parent="1" source="J3w0lGUIC_cJyagCWIS_-7" target="J3w0lGUIC_cJyagCWIS_-1" edge="1">
          <mxGeometry relative="1" as="geometry" />
        </mxCell>
        <mxCell id="J3w0lGUIC_cJyagCWIS_-9" value="Classname" style="swimlane;fontStyle=0;childLayout=stackLayout;horizontal=1;startSize=26;fillColor=none;horizontalStack=0;resizeParent=1;resizeParentMax=0;resizeLast=0;collapsible=1;marginBottom=0;" parent="1" vertex="1">
          <mxGeometry x="163" y="55" width="140" height="104" as="geometry" />
        </mxCell>
        <mxCell id="J3w0lGUIC_cJyagCWIS_-10" value="+ field: type" style="text;strokeColor=none;fillColor=none;align=left;verticalAlign=top;spacingLeft=4;spacingRight=4;overflow=hidden;rotatable=0;points=[[0,0.5],[1,0.5]];portConstraint=eastwest;" parent="J3w0lGUIC_cJyagCWIS_-9" vertex="1">
          <mxGeometry y="26" width="140" height="26" as="geometry" />
        </mxCell>
        <mxCell id="J3w0lGUIC_cJyagCWIS_-11" value="+ field: type" style="text;strokeColor=none;fillColor=none;align=left;verticalAlign=top;spacingLeft=4;spacingRight=4;overflow=hidden;rotatable=0;points=[[0,0.5],[1,0.5]];portConstraint=eastwest;" parent="J3w0lGUIC_cJyagCWIS_-9" vertex="1">
          <mxGeometry y="52" width="140" height="26" as="geometry" />
        </mxCell>
        <mxCell id="J3w0lGUIC_cJyagCWIS_-12" value="+ field: type" style="text;strokeColor=none;fillColor=none;align=left;verticalAlign=top;spacingLeft=4;spacingRight=4;overflow=hidden;rotatable=0;points=[[0,0.5],[1,0.5]];portConstraint=eastwest;" parent="J3w0lGUIC_cJyagCWIS_-9" vertex="1">
          <mxGeometry y="78" width="140" height="26" as="geometry" />
        </mxCell>
        <mxCell id="J3w0lGUIC_cJyagCWIS_-13" value="" style="shape=line;html=1;strokeWidth=6;strokeColor=#ff0000;" parent="1" vertex="1">
          <mxGeometry x="376" y="269" width="200" height="10" as="geometry" />
        </mxCell>
        <mxCell id="J3w0lGUIC_cJyagCWIS_-14" value="" style="edgeStyle=orthogonalEdgeStyle;html=1;verticalAlign=bottom;endArrow=open;endSize=8;strokeColor=#ff0000;" parent="1" source="J3w0lGUIC_cJyagCWIS_-13" edge="1">
          <mxGeometry relative="1" as="geometry">
            <mxPoint x="476" y="369" as="targetPoint" />
            <Array as="points">
              <mxPoint x="423" y="342" />
              <mxPoint x="615" y="342" />
            </Array>
          </mxGeometry>
        </mxCell>
        <mxCell id="J3w0lGUIC_cJyagCWIS_-15" value="" style="endArrow=diamondThin;endFill=0;endSize=24;html=1;" parent="1" edge="1">
          <mxGeometry width="160" relative="1" as="geometry">
            <mxPoint x="428" y="228" as="sourcePoint" />
            <mxPoint x="693" y="267" as="targetPoint" />
          </mxGeometry>
        </mxCell>
        <mxCell id="J3w0lGUIC_cJyagCWIS_-16" value="Text" style="text;html=1;align=center;verticalAlign=middle;resizable=0;points=[];labelBackgroundColor=#ffffff;" parent="J3w0lGUIC_cJyagCWIS_-15" vertex="1" connectable="0">
          <mxGeometry x="0.1658" y="-2" relative="1" as="geometry">
            <mxPoint as="offset" />
          </mxGeometry>
        </mxCell>
        <mxCell id="J3w0lGUIC_cJyagCWIS_-17" value="" style="shape=mxgraph.bpmn.shape;html=1;verticalLabelPosition=bottom;labelBackgroundColor=#ffffff;verticalAlign=top;align=center;perimeter=rhombusPerimeter;background=gateway;outlineConnect=0;outline=eventNonint;symbol=escalation;" parent="1" vertex="1">
          <mxGeometry x="195" y="253" width="50" height="50" as="geometry" />
        </mxCell>
        <mxCell id="J3w0lGUIC_cJyagCWIS_-18" value="" style="rhombus;whiteSpace=wrap;html=1;" parent="1" vertex="1">
          <mxGeometry x="-18" y="584" width="80" height="80" as="geometry" />
        </mxCell>
        <mxCell id="J3w0lGUIC_cJyagCWIS_-19" value="" style="whiteSpace=wrap;html=1;" parent="1" vertex="1">
          <mxGeometry x="-18" y="685" width="120" height="60" as="geometry" />
        </mxCell>
        <mxCell id="J3w0lGUIC_cJyagCWIS_-20" value="" style="ellipse;whiteSpace=wrap;html=1;" parent="1" vertex="1">
          <mxGeometry x="-18" y="766" width="80" height="80" as="geometry" />
        </mxCell>
        <mxCell id="J3w0lGUIC_cJyagCWIS_-21" value="" style="rhombus;whiteSpace=wrap;html=1;" parent="1" vertex="1">
          <mxGeometry x="155" y="842" width="80" height="80" as="geometry" />
        </mxCell>
        <mxCell id="HVkjaY0wB9c_f28Pl0Bt-1" value="Actor" style="shape=umlActor;verticalLabelPosition=bottom;labelBackgroundColor=#ffffff;verticalAlign=top;html=1;outlineConnect=0;" vertex="1" parent="1">
          <mxGeometry x="314" y="459" width="30" height="60" as="geometry" />
        </mxCell>
        <mxCell id="HVkjaY0wB9c_f28Pl0Bt-2" value="Actor" style="shape=umlActor;verticalLabelPosition=bottom;labelBackgroundColor=#ffffff;verticalAlign=top;html=1;outlineConnect=0;" vertex="1" parent="1">
          <mxGeometry x="798" y="123" width="30" height="60" as="geometry" />
        </mxCell>
      </root>
    </mxGraphModel>
  </diagram>
</mxfile>
